<?xml version="1.0" encoding="utf-8"?>
<!-- Generator: Adobe Illustrator 17.1.0, SVG Export Plug-In . SVG Version: 6.00 Build 0)  -->
<!DOCTYPE svg PUBLIC "-//W3C//DTD SVG 1.1//EN" "http://www.w3.org/Graphics/SVG/1.1/DTD/svg11.dtd">
<svg version="1.1" id="Twitter" xmlns="http://www.w3.org/2000/svg" xmlns:xlink="http://www.w3.org/1999/xlink" x="0px" y="0px"
	 viewBox="0 0 32 32" enable-background="new 0 0 32 32" xml:space="preserve">
<polygon fill="#FFFFFF" points="23,12 23,10 21,10 21,8 17,8 17,10 15,10 15,14 13,14 13,12 11,12 11,10 9,10 9,8 5,8 5,12 7,12
	7,14 7,18 9,18 9,20 5,20 5,24 9,24 13,24 17,24 17,22 19,22 19,20 21,20 21,18 23,18 23,16 27,16 27,12 "/>
</svg>
